<mxfile host="app.diagrams.net" modified="2022-06-21T15:45:41.530Z" agent="5.0 (Windows NT 10.0; Win64; x64) AppleWebKit/537.36 (KHTML, like Gecko) Chrome/102.0.0.0 Safari/537.36" etag="7mDCWI6j1xjPlU39vmpD" version="20.0.1" type="github">
  <diagram id="AKdfn0uaHxLsj2YdsaH8" name="Page-1">
    <mxGraphModel dx="900" dy="595" grid="1" gridSize="10" guides="1" tooltips="1" connect="1" arrows="1" fold="1" page="1" pageScale="1" pageWidth="700" pageHeight="300" math="0" shadow="0">
      <root>
        <mxCell id="0" />
        <mxCell id="1" parent="0" />
        <mxCell id="NMZUEwm2zosYYTQ2gPdF-7" value="" style="edgeStyle=orthogonalEdgeStyle;rounded=0;orthogonalLoop=1;jettySize=auto;html=1;fontFamily=Courier New;fontSize=14;" edge="1" parent="1" source="NMZUEwm2zosYYTQ2gPdF-2" target="NMZUEwm2zosYYTQ2gPdF-6">
          <mxGeometry relative="1" as="geometry" />
        </mxCell>
        <mxCell id="NMZUEwm2zosYYTQ2gPdF-2" value="M-P" style="rounded=0;whiteSpace=wrap;html=1;fontFamily=Courier New;fontSize=14;" vertex="1" parent="1">
          <mxGeometry x="290" y="130" width="120" height="40" as="geometry" />
        </mxCell>
        <mxCell id="NMZUEwm2zosYYTQ2gPdF-5" value="" style="edgeStyle=orthogonalEdgeStyle;rounded=0;orthogonalLoop=1;jettySize=auto;html=1;fontFamily=Courier New;fontSize=14;" edge="1" parent="1" source="NMZUEwm2zosYYTQ2gPdF-3" target="NMZUEwm2zosYYTQ2gPdF-2">
          <mxGeometry relative="1" as="geometry" />
        </mxCell>
        <mxCell id="NMZUEwm2zosYYTQ2gPdF-3" value="000102030405060708090a0b0c0d0e0f010153484500800000000000000000b0" style="text;html=1;strokeColor=none;fillColor=none;align=center;verticalAlign=middle;whiteSpace=wrap;rounded=0;fontFamily=Courier New;fontSize=14;" vertex="1" parent="1">
          <mxGeometry x="135" y="50" width="430" height="30" as="geometry" />
        </mxCell>
        <mxCell id="NMZUEwm2zosYYTQ2gPdF-6" value="118a46447a770d87828a69c222e2d17e" style="text;html=1;strokeColor=none;fillColor=none;align=center;verticalAlign=middle;whiteSpace=wrap;rounded=0;fontFamily=Courier New;fontSize=14;" vertex="1" parent="1">
          <mxGeometry x="135" y="220" width="430" height="30" as="geometry" />
        </mxCell>
        <mxCell id="NMZUEwm2zosYYTQ2gPdF-8" value="Input" style="text;html=1;strokeColor=none;fillColor=none;align=center;verticalAlign=middle;whiteSpace=wrap;rounded=0;fontFamily=Courier New;fontSize=14;" vertex="1" parent="1">
          <mxGeometry x="320" y="20" width="60" height="30" as="geometry" />
        </mxCell>
        <mxCell id="NMZUEwm2zosYYTQ2gPdF-9" value="Derived Key" style="text;html=1;strokeColor=none;fillColor=none;align=center;verticalAlign=middle;whiteSpace=wrap;rounded=0;fontFamily=Courier New;fontSize=14;" vertex="1" parent="1">
          <mxGeometry x="320" y="250" width="60" height="30" as="geometry" />
        </mxCell>
      </root>
    </mxGraphModel>
  </diagram>
</mxfile>
